<?xml version="1.0" standalone="no"?>
<!DOCTYPE svg PUBLIC "-//W3C//DTD SVG 20010904//EN"
 "http://www.w3.org/TR/2001/REC-SVG-20010904/DTD/svg10.dtd">
<svg version="1.0" xmlns="http://www.w3.org/2000/svg"
 width="1539.000000pt" height="1539.000000pt" viewBox="0 0 1539.000000 1539.000000"
 preserveAspectRatio="xMidYMid meet">
<metadata>
Created by potrace 1.14, written by Peter Selinger 2001-2017
</metadata>
<g transform="translate(0.000000,1539.000000) scale(0.100000,-0.100000)"
fill="#000000" stroke="none">
<path d="M7845 12865 c-74 -14 -116 -28 -205 -68 -30 -13 -81 -30 -114 -37
-48 -10 -66 -20 -100 -55 -34 -35 -51 -45 -100 -55 -32 -6 -96 -25 -142 -41
-60 -21 -103 -29 -151 -29 -93 -1 -148 -15 -215 -55 -31 -19 -65 -35 -75 -35
-31 0 -113 -58 -131 -92 -9 -18 -45 -62 -79 -98 -34 -36 -80 -99 -103 -140
-47 -83 -106 -149 -223 -247 -126 -106 -212 -249 -274 -454 -26 -87 -30 -93
-79 -131 -68 -51 -81 -82 -67 -163 6 -36 7 -79 3 -101 -4 -22 -13 -63 -19 -93
-6 -30 -8 -69 -5 -87 4 -20 1 -34 -7 -39 -8 -6 -10 -4 -4 6 7 11 6 12 -6 2 -8
-6 -26 -14 -39 -17 -55 -11 -124 -37 -132 -49 -6 -9 -8 -9 -8 1 0 9 -5 10 -18
3 -11 -6 -32 -12 -47 -15 -16 -3 -31 -9 -34 -13 -6 -7 -14 -9 -63 -15 -10 -1
-18 -7 -18 -12 0 -5 -3 -7 -6 -3 -4 3 -22 0 -40 -8 -19 -8 -34 -11 -34 -7 0 3
-5 1 -12 -6 -7 -7 -23 -12 -36 -12 -13 0 -21 -4 -17 -9 3 -6 -4 -8 -15 -6 -11
2 -20 -1 -20 -7 0 -5 -7 -7 -16 -4 -8 3 -12 2 -9 -4 3 -6 -3 -11 -14 -11 -28
-2 -34 -3 -46 -10 -5 -4 -18 -5 -28 -4 -9 2 -15 -1 -11 -6 3 -5 2 -9 -3 -10
-34 -3 -68 -11 -73 -17 -3 -4 -16 -9 -30 -10 -14 -2 -29 -7 -34 -12 -5 -5 -15
-6 -22 -3 -8 3 -14 0 -14 -6 0 -6 -5 -11 -11 -11 -5 0 -8 4 -5 9 4 5 -5 4 -19
-2 -14 -7 -25 -16 -25 -20 0 -5 -5 -5 -11 -1 -6 3 -15 0 -20 -7 -6 -10 -9 -11
-9 -1 0 9 -5 10 -22 1 -55 -29 -60 -30 -54 -20 4 7 1 8 -8 5 -9 -3 -16 -11
-16 -17 0 -6 -3 -8 -6 -4 -3 3 -23 -1 -44 -8 -21 -7 -41 -11 -44 -8 -3 4 -6 1
-6 -5 0 -7 -8 -12 -18 -12 -10 0 -27 -7 -38 -15 -12 -8 -31 -12 -43 -10 -12 2
-19 0 -16 -6 6 -9 -3 -12 -37 -12 -10 0 -18 -4 -18 -8 0 -5 -3 -8 -7 -8 -5 1
-10 0 -13 -1 -12 -4 -46 -12 -62 -13 -9 -1 -14 -6 -11 -11 4 -5 -1 -7 -10 -3
-9 3 -19 2 -23 -4 -3 -6 -12 -8 -19 -5 -7 2 -16 -2 -19 -9 -3 -8 -11 -12 -19
-9 -7 2 -27 -1 -43 -7 -16 -7 -35 -11 -41 -10 -7 1 -13 -4 -13 -11 0 -9 -3 -9
-10 2 -5 8 -10 10 -10 4 0 -10 -29 -21 -75 -29 -5 -1 -19 -5 -30 -9 -11 -5
-27 -10 -35 -13 -8 -4 -24 -8 -35 -10 -11 -2 -22 -8 -23 -13 -2 -6 -8 -8 -13
-4 -5 3 -9 0 -9 -6 0 -6 -5 -8 -10 -5 -6 4 -17 1 -25 -5 -8 -7 -21 -10 -29 -7
-8 3 -16 1 -18 -4 -2 -5 -13 -11 -26 -12 -12 0 -22 -5 -22 -10 0 -5 -7 -7 -15
-3 -8 3 -15 1 -15 -5 0 -6 -4 -8 -9 -4 -5 3 -12 1 -16 -4 -3 -6 -12 -8 -20 -4
-8 3 -15 1 -15 -4 0 -8 -18 -13 -62 -16 -9 -1 -15 -3 -12 -6 4 -5 -89 -33
-113 -34 -7 0 -13 -3 -13 -7 0 -3 -10 -6 -22 -7 -11 -1 -24 -7 -28 -14 -6 -8
-9 -8 -12 1 -3 10 -7 10 -18 -1 -8 -8 -22 -15 -30 -16 -40 -5 -74 -15 -94 -28
-13 -8 -25 -13 -28 -10 -3 3 -22 -3 -41 -14 -26 -14 -37 -17 -41 -8 -3 9 -5 9
-5 0 -1 -7 -8 -13 -17 -13 -8 0 -12 -5 -8 -11 4 -7 -1 -7 -16 1 -15 8 -20 8
-16 1 6 -10 -13 -16 -37 -12 -4 0 -7 -3 -7 -9 0 -5 -7 -7 -15 -4 -8 4 -15 2
-15 -4 0 -6 -8 -9 -17 -7 -10 1 -23 -1 -29 -6 -6 -5 -24 -10 -40 -12 -16 -2
-38 -8 -49 -14 -11 -6 -44 -16 -72 -23 -29 -6 -53 -16 -53 -21 0 -4 -7 -6 -15
-3 -9 4 -15 0 -15 -7 0 -11 -3 -11 -10 1 -9 13 -11 13 -20 0 -5 -8 -15 -15
-22 -15 -38 -2 -107 -28 -101 -39 4 -6 -1 -5 -10 3 -13 11 -17 11 -17 1 0 -8
-3 -10 -7 -7 -3 4 -12 2 -20 -4 -7 -6 -13 -8 -13 -5 0 4 -7 0 -16 -9 -12 -12
-19 -13 -24 -5 -5 8 -9 7 -14 -5 -3 -9 -11 -13 -17 -9 -6 3 -14 2 -18 -4 -4
-6 -21 -12 -38 -14 -17 -1 -30 -5 -27 -9 3 -6 -32 -16 -73 -21 -7 -1 -13 -5
-13 -10 0 -4 -5 -8 -11 -8 -5 0 -7 5 -3 11 3 6 -5 3 -20 -6 -14 -10 -26 -14
-26 -10 0 4 -7 2 -15 -5 -8 -7 -15 -9 -15 -4 0 4 -5 3 -11 -3 -6 -6 -18 -9
-25 -6 -8 3 -14 1 -14 -4 0 -5 -8 -9 -17 -10 -10 -1 -40 -9 -67 -18 -26 -9
-56 -18 -65 -20 -9 -2 -28 -8 -42 -13 -15 -6 -30 -8 -33 -5 -3 4 -6 1 -6 -6 0
-7 -4 -10 -9 -7 -5 3 -14 -1 -21 -9 -7 -8 -16 -12 -22 -9 -5 3 -15 0 -23 -6
-8 -6 -19 -9 -25 -5 -5 3 -10 1 -10 -5 0 -6 -4 -8 -10 -5 -5 3 -10 1 -10 -6 0
-8 -3 -9 -14 0 -10 9 -16 8 -26 -4 -7 -8 -16 -12 -21 -9 -5 3 -9 0 -9 -6 0 -6
-4 -8 -10 -5 -5 3 -10 2 -10 -2 0 -5 -8 -10 -17 -11 -33 -3 -58 -9 -88 -21
-16 -7 -38 -14 -48 -16 -17 -4 -147 -43 -177 -53 -8 -3 -18 -6 -22 -6 -3 -1
-9 -4 -13 -8 -4 -4 -13 -4 -20 -2 -7 3 -16 0 -20 -5 -3 -6 -11 -9 -16 -6 -5 4
-9 1 -9 -5 0 -6 -5 -8 -10 -5 -6 4 -17 1 -25 -5 -8 -7 -15 -9 -15 -5 0 4 -6 2
-13 -4 -8 -6 -17 -8 -20 -4 -4 3 -7 1 -7 -5 0 -6 -9 -9 -20 -7 -11 2 -20 -1
-20 -7 0 -5 -7 -7 -16 -4 -8 3 -12 2 -9 -3 3 -5 1 -12 -5 -16 -5 -3 -10 0 -10
7 0 9 -3 9 -10 -2 -5 -8 -10 -11 -10 -6 0 5 -8 2 -17 -5 -15 -12 -16 -12 -8 1
5 9 0 8 -13 -4 -12 -11 -22 -16 -22 -12 0 3 -17 -1 -37 -10 -21 -8 -49 -18
-63 -20 -13 -3 -28 -11 -32 -17 -6 -9 -8 -8 -8 1 0 10 -9 8 -36 -7 -19 -12
-32 -16 -29 -10 5 7 2 7 -11 0 -32 -17 -67 -27 -111 -33 -7 -1 -13 -4 -13 -7
0 -6 -26 -11 -67 -14 -7 0 -10 -4 -7 -9 4 -7 -26 -13 -48 -9 -5 0 -8 -3 -8 -9
0 -5 -7 -7 -15 -4 -8 4 -15 1 -15 -6 0 -10 -4 -9 -16 0 -12 11 -15 11 -12 -1
2 -9 -5 -14 -19 -13 -13 1 -20 -2 -18 -6 6 -10 -24 -22 -36 -14 -5 3 -9 0 -9
-6 0 -6 -4 -9 -9 -6 -5 3 -21 -7 -37 -22 -15 -15 -24 -21 -20 -14 18 30 -34
-9 -57 -43 -19 -28 -26 -32 -37 -22 -9 9 -11 9 -6 0 3 -6 -2 -17 -11 -23 -17
-11 -17 -11 0 -6 27 8 20 -9 -9 -22 -14 -7 -22 -17 -19 -22 3 -6 1 -10 -5 -10
-6 0 -8 -4 -5 -10 3 -5 0 -10 -7 -10 -10 0 -10 -2 1 -9 10 -6 10 -10 1 -16 -6
-4 -9 -13 -6 -21 3 -8 1 -14 -5 -14 -6 0 -7 -5 -3 -11 4 -6 8 -28 9 -48 2 -20
7 -50 13 -68 6 -17 8 -34 4 -37 -3 -3 0 -6 6 -6 7 0 12 -10 12 -23 0 -13 6
-29 13 -36 8 -10 8 -12 0 -7 -8 4 -7 -2 2 -21 8 -16 16 -39 19 -53 2 -14 11
-44 20 -68 9 -24 15 -46 14 -50 -1 -4 2 -16 6 -27 24 -62 27 -73 29 -93 1 -12
4 -22 7 -22 4 0 7 -6 8 -12 1 -16 7 -39 15 -58 4 -8 8 -24 10 -35 1 -11 10
-35 19 -53 9 -18 12 -30 7 -27 -5 4 -9 1 -9 -4 0 -6 5 -11 10 -11 6 0 10 -7
10 -15 0 -8 5 -15 11 -15 5 0 7 -5 3 -11 -3 -6 0 -15 7 -20 11 -7 11 -9 1 -9
-10 0 -9 -4 3 -16 11 -12 13 -20 5 -29 -7 -9 -6 -16 5 -25 8 -7 12 -17 8 -23
-3 -6 -1 -7 5 -3 8 5 12 -1 12 -18 0 -14 5 -28 11 -32 6 -3 9 -15 6 -25 -3
-11 -2 -19 3 -19 4 0 11 -17 15 -37 4 -21 10 -42 13 -48 7 -10 11 -28 14 -57
1 -10 6 -18 10 -18 4 0 8 -13 8 -28 0 -16 3 -32 7 -36 5 -4 9 -12 9 -17 1 -5
2 -10 4 -11 2 -4 11 -39 15 -67 2 -13 7 -27 12 -30 4 -3 9 -15 11 -26 3 -22 6
-33 15 -55 4 -8 9 -26 11 -40 3 -14 5 -27 6 -30 2 -3 2 -8 1 -12 0 -5 4 -8 10
-8 5 0 8 -4 4 -9 -3 -5 0 -13 6 -16 5 -4 8 -13 5 -21 -3 -7 0 -19 7 -26 17
-18 22 -52 6 -42 -8 4 -10 3 -5 -5 4 -6 11 -9 16 -6 5 3 12 -11 16 -32 4 -21
12 -41 18 -45 7 -5 6 -8 -4 -8 -11 0 -12 -2 -2 -8 7 -5 14 -19 17 -31 2 -13
10 -30 17 -39 9 -11 9 -14 1 -9 -8 5 -7 -2 2 -20 8 -15 15 -36 15 -46 0 -10 3
-16 8 -14 4 3 8 -5 8 -16 4 -48 9 -67 18 -67 5 0 6 -3 3 -6 -3 -4 -2 -15 3
-25 6 -10 11 -29 12 -43 1 -15 7 -26 12 -26 5 0 6 -3 3 -7 -4 -3 -1 -13 6 -21
10 -13 9 -14 -3 -7 -9 5 -8 0 4 -13 11 -12 16 -22 13 -22 -3 0 1 -21 9 -47 8
-27 17 -55 19 -63 2 -8 4 -17 5 -20 1 -3 2 -9 1 -14 -1 -5 2 -12 8 -15 5 -3
11 -22 13 -41 1 -19 9 -41 16 -49 7 -7 11 -20 8 -27 -3 -8 -1 -14 4 -14 6 0 9
-3 9 -7 -4 -23 2 -43 11 -38 6 4 10 3 9 -2 -4 -23 2 -54 10 -49 4 3 7 -6 5
-19 -1 -14 2 -25 7 -25 6 0 7 -4 4 -10 -3 -5 -1 -10 6 -10 8 0 7 -5 -2 -17
-12 -14 -12 -16 0 -8 11 6 13 4 8 -9 -4 -10 -1 -19 8 -23 11 -4 13 -9 5 -18
-7 -9 -6 -16 5 -25 8 -7 15 -20 15 -29 0 -9 6 -23 13 -30 8 -10 8 -12 0 -7 -8
4 -7 -2 2 -21 8 -16 16 -39 18 -53 3 -14 10 -38 16 -53 6 -15 13 -42 16 -60 4
-18 13 -43 22 -56 11 -17 11 -21 2 -15 -11 6 -12 5 -2 -7 6 -8 12 -17 12 -21
6 -38 15 -68 20 -68 4 0 8 -8 9 -17 1 -10 3 -31 5 -46 2 -16 10 -33 18 -38 11
-7 11 -9 1 -9 -10 0 -10 -4 2 -15 8 -8 13 -24 11 -36 -2 -11 2 -22 10 -26 8
-3 12 -10 9 -15 -4 -6 0 -14 7 -19 10 -6 10 -9 2 -9 -7 0 -10 -7 -7 -15 4 -8
9 -13 13 -11 6 4 10 -11 13 -51 1 -7 5 -13 10 -13 4 0 8 -10 8 -23 0 -13 9
-41 19 -63 14 -27 16 -43 9 -51 -7 -9 -6 -15 6 -19 9 -3 13 -10 10 -15 -3 -5
0 -9 5 -9 6 0 11 -8 11 -17 0 -28 43 -157 54 -165 7 -5 5 -8 -4 -8 -9 0 -11
-3 -5 -8 10 -7 12 -14 18 -52 2 -11 6 -23 10 -26 4 -4 7 -16 7 -26 0 -10 4
-18 9 -18 5 0 8 -8 7 -17 -2 -10 3 -33 11 -50 7 -18 10 -33 7 -33 -4 0 -1 -6
5 -13 6 -8 8 -17 4 -20 -3 -4 -2 -7 3 -7 5 0 11 -14 12 -32 2 -17 7 -37 13
-44 5 -7 12 -25 15 -40 3 -16 10 -34 16 -41 6 -7 7 -13 2 -13 -4 0 -3 -5 4
-12 7 -7 12 -22 12 -35 0 -13 4 -23 8 -23 4 0 8 -10 9 -22 1 -11 7 -24 14 -28
8 -6 8 -9 -2 -13 -10 -4 -10 -6 -1 -6 6 -1 12 -12 12 -26 0 -14 4 -25 8 -25 4
0 9 -12 10 -26 1 -14 5 -31 9 -37 4 -7 8 -15 9 -19 1 -5 2 -9 4 -10 2 -4 7
-24 15 -63 3 -16 11 -32 16 -36 6 -3 10 -9 10 -13 -4 -28 1 -57 12 -68 6 -7
12 -22 13 -33 1 -32 15 -75 25 -75 5 0 8 -3 7 -7 -4 -14 23 -54 31 -48 5 3 11
-2 15 -10 3 -8 13 -15 21 -15 9 0 14 -4 10 -9 -3 -6 4 -15 15 -21 19 -10 28
-31 13 -29 -23 4 -43 -2 -38 -11 9 -15 -2 -12 -19 6 -14 13 -16 14 -16 0 0 -9
-7 -13 -20 -11 -11 2 -20 0 -20 -6 0 -5 -9 -9 -20 -9 -11 0 -20 -4 -20 -10 0
-5 -5 -10 -11 -10 -5 0 -7 6 -3 13 4 6 -1 5 -12 -4 -10 -9 -25 -14 -31 -12 -7
3 -13 1 -13 -4 0 -6 -6 -10 -12 -11 -40 -5 -55 -10 -78 -22 -14 -7 -26 -13
-27 -12 -2 1 -4 2 -5 1 -2 0 -10 -2 -18 -4 -39 -8 -106 -28 -115 -34 -5 -4
-17 -7 -25 -6 -8 0 -21 -6 -28 -15 -9 -10 -11 -11 -6 -1 5 10 3 12 -7 5 -8 -5
-18 -9 -24 -9 -5 0 -37 -8 -70 -19 -33 -10 -66 -20 -73 -22 -7 -2 -10 -8 -7
-14 3 -6 -1 -7 -10 -4 -8 4 -22 1 -30 -6 -9 -7 -18 -10 -22 -7 -3 4 -12 -1
-20 -11 -9 -10 -11 -11 -7 -2 7 13 5 13 -9 2 -9 -8 -21 -11 -27 -7 -5 3 -10 2
-10 -3 0 -8 -98 -38 -113 -34 -4 1 -7 -3 -7 -10 0 -6 -3 -8 -7 -5 -3 4 -13 1
-21 -6 -13 -9 -14 -9 -8 0 10 18 -2 16 -21 -3 -9 -8 -22 -13 -29 -10 -8 3 -14
1 -14 -4 0 -6 -3 -9 -7 -8 -16 4 -78 -15 -85 -26 -5 -7 -8 -6 -8 3 0 11 -4 9
-15 -5 -8 -10 -15 -14 -15 -7 0 8 -9 7 -30 -3 -16 -9 -34 -13 -40 -9 -5 3 -10
2 -10 -2 0 -5 -9 -14 -21 -21 -17 -11 -20 -11 -14 0 6 10 5 10 -5 1 -7 -6 -19
-9 -26 -6 -8 3 -14 -1 -14 -8 0 -12 -2 -12 -9 0 -7 11 -10 9 -16 -8 -4 -12
-11 -19 -18 -15 -10 5 11 -14 61 -56 8 -8 12 -8 12 0 0 6 4 8 10 5 8 -5 261
-9 280 -5 26 7 60 4 60 -5 0 -6 3 -7 8 0 4 6 48 11 97 12 84 3 190 10 190 13
0 3 43 11 83 15 24 3 51 9 61 15 10 5 21 6 25 3 3 -3 6 -1 6 6 0 7 4 9 10 6 5
-3 18 -1 28 4 10 5 29 11 43 13 13 2 29 6 34 10 6 3 25 9 43 13 17 3 32 11 32
17 0 6 7 7 16 4 8 -3 12 -2 9 4 -3 6 3 10 14 10 12 0 21 5 21 10 0 6 5 10 12
10 6 0 19 6 27 14 24 21 185 68 244 71 29 1 79 10 112 20 33 10 62 19 65 19 3
1 11 5 17 9 7 5 13 6 13 3 0 -3 12 -1 27 5 31 12 62 20 81 21 6 1 12 4 12 8 0
4 6 7 13 8 13 0 21 3 107 28 30 9 63 16 73 16 9 -1 15 3 12 9 -4 5 4 9 17 9
13 0 30 4 38 10 9 6 17 5 22 -3 5 -8 8 -6 8 6 0 9 3 16 7 16 21 -3 33 2 27 12
-4 8 0 8 15 0 16 -9 21 -9 21 0 0 6 7 8 15 5 9 -3 18 1 21 9 4 8 10 13 15 10
4 -3 16 -1 26 4 16 9 41 18 61 22 4 1 30 10 59 20 28 9 54 15 57 12 3 -4 6 -1
6 5 0 7 3 11 8 10 11 -3 156 43 171 56 12 9 13 8 6 -4 -7 -12 -6 -13 7 -3 8 7
18 10 21 6 4 -3 7 -1 7 6 0 7 5 9 10 6 5 -3 16 -3 23 2 6 4 41 16 77 25 36 10
70 20 75 22 6 2 25 7 42 11 18 4 31 11 28 15 -2 4 7 6 20 4 14 -1 23 2 19 7
-3 5 2 10 10 10 17 2 33 5 41 9 3 1 10 4 15 5 6 1 13 4 18 5 4 1 10 2 15 1 4
0 7 3 7 9 0 5 7 7 15 4 8 -4 15 -1 15 5 0 7 6 11 13 9 6 -1 75 18 152 44 77
26 174 56 215 68 41 12 85 25 98 31 13 5 32 9 42 9 11 0 20 5 20 12 0 6 3 9 6
5 4 -3 22 0 41 8 20 8 44 15 54 15 11 0 19 4 19 8 0 5 6 9 13 9 6 0 39 9 72
19 33 10 63 19 68 20 4 1 10 3 15 4 4 1 10 2 15 1 4 0 7 3 7 7 0 4 8 9 18 10
18 2 53 9 62 12 3 1 8 2 13 1 4 0 7 3 7 9 0 6 3 9 8 9 4 -1 9 -1 12 1 3 1 16
4 30 6 14 3 50 14 80 26 30 11 62 22 70 23 8 1 22 5 30 8 57 21 109 34 114 29
3 -3 6 0 6 6 0 6 9 9 19 7 10 -2 27 4 37 13 11 10 29 17 42 16 12 -1 22 2 22
6 0 7 37 17 78 22 6 1 12 4 12 8 0 4 6 7 13 8 26 2 72 14 82 21 5 5 28 12 50
16 22 4 44 10 50 13 5 4 15 7 21 8 6 1 21 5 32 8 19 6 20 4 13 -22 -5 -16 -14
-39 -20 -50 -6 -11 -11 -43 -11 -70 0 -61 33 -110 119 -176 62 -48 91 -88 91
-127 0 -14 -31 -51 -90 -108 -94 -91 -120 -134 -120 -200 0 -59 14 -81 96
-152 41 -35 74 -69 74 -74 0 -6 -23 -33 -51 -60 -80 -80 -91 -101 -81 -174 13
-93 58 -129 188 -150 90 -16 124 -37 168 -106 38 -59 86 -95 126 -95 14 0 49
11 78 25 97 45 151 32 254 -61 73 -65 134 -60 244 20 42 31 87 56 99 56 12 0
42 -15 66 -33 90 -69 156 -87 230 -64 24 8 78 13 119 13 90 -2 124 12 203 84
56 51 82 98 93 170 5 30 15 48 40 66 43 33 47 48 29 113 -19 73 -6 100 84 181
62 55 71 67 71 97 0 19 -5 43 -11 55 -17 31 -5 32 42 2 133 -84 271 -118 474
-118 129 0 167 4 269 28 408 95 802 321 1212 697 259 237 581 618 754 891 82
130 90 117 35 -53 -25 -77 -35 -127 -35 -171 0 -50 -7 -77 -31 -128 -27 -57
-30 -72 -24 -122 l6 -56 -61 -47 c-109 -84 -118 -145 -36 -244 34 -40 36 -47
36 -113 0 -56 -6 -83 -30 -138 -37 -85 -38 -137 -5 -205 13 -27 25 -56 25 -62
0 -7 -23 -38 -50 -68 -46 -50 -50 -59 -50 -104 0 -33 10 -69 30 -113 l30 -64
-20 -59 c-24 -70 -25 -99 -4 -156 8 -24 19 -66 25 -93 7 -37 21 -61 59 -103
58 -63 60 -78 25 -165 -54 -133 -19 -234 102 -293 83 -41 106 -65 127 -132 26
-82 66 -119 139 -128 31 -4 84 -20 118 -36 94 -45 123 -46 213 -10 130 52 240
39 417 -51 114 -57 154 -60 227 -15 54 33 63 35 162 39 105 4 105 4 217 61
104 52 118 57 180 57 97 0 187 15 237 39 23 12 87 62 142 111 54 50 124 103
154 118 52 25 66 27 225 32 151 4 175 8 217 28 86 43 132 93 193 215 32 61 68
126 80 142 40 54 112 84 237 100 150 20 163 23 235 55 105 48 197 151 224 252
16 59 1 114 -45 166 -79 90 -91 120 -106 282 -17 189 -74 276 -218 336 -142
59 -152 75 -152 252 l0 130 -35 50 c-54 80 -60 139 -26 282 6 25 11 62 11 83
l0 39 38 -49 c21 -26 64 -68 96 -92 75 -58 86 -81 86 -184 0 -69 4 -92 25
-134 22 -43 35 -55 98 -89 64 -35 75 -45 100 -94 15 -30 32 -84 38 -118 12
-64 32 -88 51 -61 5 8 7 57 5 111 -6 122 -21 150 -104 198 -110 63 -118 81
-92 200 6 28 8 66 5 85 -9 44 -74 116 -140 154 -62 34 -109 95 -127 162 -10
36 -9 59 6 129 35 164 32 178 -56 252 -77 65 -102 121 -107 242 -5 104 3 125
39 105 10 -5 27 -9 38 -9 12 0 21 -6 21 -12 0 -9 4 -8 10 2 9 14 15 7 10 -15
-1 -5 4 -5 11 2 8 8 19 9 37 2 14 -5 31 -8 38 -5 8 3 18 -3 23 -12 8 -14 11
-14 11 -2 0 12 3 11 11 -3 8 -14 14 -15 31 -6 17 9 20 9 15 -3 -3 -8 1 -15 9
-15 7 0 10 5 7 11 -4 6 0 5 8 -1 12 -10 18 -10 28 0 10 9 11 9 6 -3 -4 -12 2
-16 25 -18 23 -2 29 1 24 10 -6 10 -4 10 8 0 12 -9 18 -10 23 -2 4 6 13 9 21
6 12 -4 59 48 59 66 0 3 3 10 8 14 4 4 7 20 7 36 0 16 4 27 9 23 6 -3 8 6 5
20 -3 16 0 25 8 25 9 0 8 3 -2 10 -12 8 -12 10 5 11 11 0 14 3 7 6 -10 4 -10
8 0 21 11 13 11 14 -2 7 -13 -7 -13 -6 -2 7 10 13 10 17 0 21 -7 3 -4 6 7 6
17 1 17 3 5 11 -13 8 -12 10 4 10 20 0 20 0 0 15 -10 9 -13 14 -5 13 7 -2 16
3 19 11 3 10 0 11 -9 5 -12 -6 -12 -5 0 9 8 10 11 20 8 24 -4 3 1 12 11 20 16
14 16 14 -2 8 -19 -6 -19 -5 -3 13 19 21 23 37 6 27 -6 -4 -5 2 2 13 7 12 18
18 24 14 5 -3 4 2 -4 11 -10 13 -11 20 -2 31 9 11 9 15 -1 19 -11 4 -10 6 0 6
7 1 10 6 7 11 -3 6 -2 10 4 10 5 0 8 9 6 20 -2 11 0 22 5 25 9 6 8 24 -3 42
-5 9 -3 11 6 7 11 -4 15 2 15 18 1 25 9 82 12 86 1 1 3 5 4 10 1 4 4 12 8 17
4 6 3 17 -2 25 -8 13 6 48 25 62 6 5 5 8 -4 8 -10 0 -11 3 -3 13 6 7 9 25 8
40 -2 15 1 27 5 27 5 0 9 14 9 30 0 17 4 30 10 30 5 0 7 6 4 14 -3 8 -1 23 5
34 8 15 8 22 -2 25 -9 4 -9 6 0 6 7 1 10 8 6 18 -5 13 -2 15 12 10 15 -6 16
-5 6 7 -10 11 -10 20 -1 37 10 17 10 20 -2 13 -11 -7 -11 -5 0 9 8 9 11 21 8
26 -4 5 -2 12 3 15 5 4 8 17 6 31 -1 14 2 28 7 31 4 3 6 10 3 15 -4 5 -2 9 3
9 5 0 8 11 7 25 -2 14 0 27 4 29 4 3 8 22 9 42 2 21 8 42 15 46 9 6 8 8 -3 8
-13 0 -13 2 0 9 8 6 18 7 24 4 5 -3 6 -1 2 6 -4 6 -12 9 -17 6 -5 -4 -9 -2 -9
4 0 5 4 12 8 15 5 3 8 19 7 35 -1 17 2 28 7 25 4 -3 8 9 8 26 0 22 4 29 13 24
9 -6 9 -5 0 7 -7 9 -8 20 -3 29 5 8 6 18 4 22 -3 4 1 8 8 8 9 0 9 3 -2 10 -13
8 -12 10 4 10 15 0 16 3 7 14 -9 11 -9 15 1 19 10 4 10 6 0 6 -10 1 -9 5 3 17
12 13 13 19 5 24 -9 6 -7 11 6 19 13 7 15 10 5 11 -12 0 -12 3 -3 12 16 16 16
51 0 42 -7 -4 -2 5 12 21 22 25 23 27 5 22 -18 -7 -19 -6 -3 6 10 8 15 17 11
20 -3 4 -1 7 5 7 7 0 12 5 12 11 0 5 -4 8 -9 4 -5 -3 -12 -1 -16 5 -3 5 1 10
9 10 8 0 18 5 22 12 4 6 3 8 -4 4 -7 -4 -10 2 -9 14 1 11 6 19 12 16 12 -4 13
34 0 54 -5 8 -4 11 2 7 6 -4 13 2 16 13 3 11 2 18 -2 15 -4 -2 -8 2 -8 10 0 8
5 11 10 8 6 -4 8 3 5 15 -5 16 -1 22 10 23 11 0 13 2 4 6 -10 4 -10 8 0 21 11
13 11 15 -2 7 -12 -6 -13 -5 -2 6 6 7 12 17 12 22 0 4 -6 5 -12 2 -7 -4 -6 -1
2 7 9 7 14 21 12 32 -2 10 0 16 5 13 5 -4 10 0 10 8 0 8 -3 12 -7 10 -3 -2 -6
5 -6 15 0 15 3 17 15 7 12 -10 13 -9 3 10 -9 16 -9 24 0 29 7 5 8 3 3 -6 -5
-9 -4 -11 4 -6 8 5 9 12 2 19 -6 8 -5 19 5 31 11 16 11 21 1 28 -9 6 -9 8 1 8
7 0 10 5 6 11 -3 6 0 15 7 20 8 5 9 9 3 9 -8 0 -8 11 1 38 10 27 10 41 2 50
-8 10 -7 12 4 10 13 -3 19 18 20 75 0 9 4 17 9 17 5 0 7 7 4 15 -4 8 -2 15 4
15 5 0 7 11 4 25 -2 14 1 32 8 40 10 12 10 15 -1 15 -12 0 -12 2 0 9 7 5 14
27 15 50 0 22 4 41 8 41 4 0 5 9 3 20 -2 11 3 24 13 30 12 6 13 9 3 10 -11 0
-11 3 0 17 9 10 9 14 2 10 -9 -6 -9 1 1 25 7 18 11 39 9 46 -3 6 -1 12 4 12 5
0 10 10 10 23 3 52 7 73 17 86 9 12 8 13 -4 6 -12 -7 -13 -6 -3 7 7 8 10 18 6
21 -3 4 0 7 8 7 11 0 11 2 -1 10 -9 6 -11 10 -3 10 7 0 10 7 7 15 -4 8 -2 15
2 15 5 0 10 16 10 35 1 20 -3 35 -10 35 -6 0 -5 4 3 9 9 6 10 11 2 15 -6 4
-11 19 -11 34 0 15 -7 37 -15 48 -8 12 -11 25 -7 29 4 5 1 5 -5 1 -7 -4 -13
-2 -13 4 0 6 -4 8 -10 5 -5 -3 -10 1 -10 9 0 10 -9 16 -22 16 -19 0 -20 2 -8
10 13 9 13 10 0 11 -8 1 -18 1 -22 0 -5 0 -8 2 -8 6 0 5 -19 9 -41 10 -23 2
-49 8 -57 15 -13 11 -14 11 -7 -2 8 -13 6 -13 -8 -2 -9 8 -21 11 -26 8 -5 -4
-12 -2 -16 3 -3 5 -14 8 -25 6 -11 -2 -20 -1 -20 4 0 4 -11 8 -25 9 -53 4 -60
5 -70 12 -5 4 -18 6 -27 5 -10 -2 -18 2 -18 8 0 7 -5 5 -10 -3 -7 -11 -10 -12
-10 -2 0 9 -7 11 -20 7 -12 -4 -20 -2 -20 5 0 8 -10 10 -26 7 -14 -2 -31 2
-40 10 -8 8 -14 10 -14 5 0 -12 -26 -10 -37 3 -5 4 -1 5 7 0 9 -5 12 -4 7 1
-4 4 -24 7 -43 5 -18 -1 -34 2 -34 8 0 5 -9 8 -19 6 -26 -5 -62 5 -55 16 3 5
-2 6 -10 3 -9 -3 -13 -11 -10 -18 3 -6 -1 -3 -9 6 -9 12 -17 14 -24 7 -7 -7
-14 -5 -22 5 -7 8 -19 12 -26 10 -7 -3 -22 -1 -33 5 -13 7 -23 7 -32 -2 -10
-9 -11 -9 -6 1 5 8 0 12 -13 13 -47 3 -57 5 -77 16 -16 9 -24 9 -32 1 -9 -9
-12 -9 -12 1 0 7 -4 9 -10 6 -5 -3 -10 -2 -10 2 0 5 -9 9 -20 10 -13 1 -18 -3
-14 -10 3 -7 -2 -3 -10 7 -11 13 -16 15 -16 6 0 -10 -3 -10 -17 2 -10 8 -33
14 -50 14 -18 -1 -33 1 -33 4 0 3 -10 5 -22 6 -32 1 -52 7 -60 19 -5 6 -8 5
-8 -3 0 -9 -5 -10 -18 -3 -13 7 -23 6 -31 -2 -10 -9 -12 -9 -9 2 2 7 -3 16 -9
18 -7 3 -13 -1 -13 -7 0 -7 -6 -5 -16 4 -18 19 -38 21 -28 4 6 -10 5 -10 -8
-1 -8 7 -18 10 -21 6 -4 -3 -7 -1 -7 7 0 10 -3 10 -15 0 -12 -10 -15 -9 -15 6
0 16 -2 17 -10 4 -5 -8 -10 -10 -10 -4 0 7 -11 9 -26 6 -16 -3 -24 -1 -21 4 3
6 -4 11 -16 11 -17 2 -19 0 -7 -7 9 -6 10 -10 3 -10 -6 0 -15 5 -18 10 -9 14
-58 12 -74 -2 -11 -10 -13 -10 -7 0 4 7 1 12 -8 12 -9 0 -16 -5 -16 -11 0 -5
-4 -7 -10 -4 -9 5 -14 -7 -12 -26 1 -4 -6 -6 -16 -5 -10 0 -16 -6 -16 -16 1
-10 -2 -16 -6 -13 -5 3 -11 -4 -15 -15 -3 -11 -10 -20 -15 -20 -5 0 -7 -6 -4
-14 3 -8 0 -17 -5 -21 -6 -3 -9 -10 -6 -15 3 -5 1 -11 -5 -15 -15 -9 -12 -28
3 -19 6 4 3 -3 -8 -16 -12 -14 -14 -20 -5 -15 12 7 13 6 3 -6 -7 -9 -14 -25
-16 -37 -2 -12 -6 -24 -9 -28 -4 -3 -4 -12 -1 -20 3 -8 -3 -22 -13 -30 -11 -9
-14 -13 -7 -10 6 4 14 2 18 -4 3 -5 2 -10 -4 -10 -6 0 -8 -7 -5 -15 4 -8 1
-15 -4 -15 -6 0 -10 -15 -8 -35 2 -19 -1 -38 -7 -42 -5 -3 -7 -1 -3 5 3 6 2
13 -3 17 -10 6 -7 -27 4 -45 4 -6 1 -17 -5 -25 -6 -8 -9 -19 -5 -25 3 -5 2
-10 -4 -10 -5 0 -8 -8 -7 -17 2 -10 -2 -26 -9 -35 -6 -10 -10 -33 -9 -52 2
-20 -2 -38 -8 -42 -7 -5 -8 -2 -3 6 5 9 4 11 -4 6 -9 -6 -9 -11 1 -24 9 -11
10 -16 2 -19 -7 -2 -10 -13 -7 -23 3 -12 0 -20 -6 -20 -7 0 -9 5 -5 12 5 7 3
8 -6 3 -10 -6 -9 -11 5 -22 12 -8 14 -13 6 -13 -7 0 -11 -6 -7 -15 3 -8 -2
-19 -12 -24 -15 -9 -15 -10 3 -11 15 0 17 -2 6 -9 -7 -5 -11 -13 -7 -19 3 -6
1 -14 -5 -17 -5 -4 -8 -13 -5 -21 3 -8 1 -14 -4 -14 -5 0 -6 -7 -3 -17 5 -12
3 -14 -7 -8 -9 5 -11 4 -6 -4 4 -6 2 -19 -5 -27 -10 -12 -9 -13 5 -8 12 5 15
2 10 -10 -3 -9 -10 -14 -15 -11 -4 3 -6 -3 -4 -15 2 -11 0 -22 -5 -25 -4 -3
-6 -14 -3 -25 3 -12 0 -20 -7 -20 -9 0 -9 -4 1 -17 12 -14 12 -16 -2 -11 -9 4
-16 1 -16 -8 0 -7 4 -11 9 -8 14 9 9 -13 -7 -26 -12 -10 -13 -16 -4 -26 9 -11
8 -14 -2 -14 -10 0 -10 -3 -1 -12 9 -9 8 -16 -6 -32 -9 -11 -11 -16 -5 -12 9
5 11 2 7 -8 -3 -9 -10 -14 -14 -11 -5 3 -11 1 -14 -4 -4 -5 -1 -13 5 -17 8 -5
9 -3 4 7 -5 8 -4 10 0 6 16 -14 15 -42 -2 -54 -13 -10 -13 -13 -3 -13 9 0 8
-5 -6 -16 -10 -8 -14 -13 -7 -10 6 4 14 2 18 -4 3 -5 0 -10 -8 -10 -8 0 -18
-7 -21 -16 -10 -25 -7 -27 11 -13 16 13 16 12 0 -14 -15 -24 -16 -31 -5 -45
11 -14 11 -15 -5 -9 -11 4 -16 3 -12 -3 3 -6 0 -10 -7 -10 -10 0 -10 -2 1 -9
9 -6 10 -10 2 -16 -9 -5 -9 -10 -1 -20 8 -10 8 -15 -1 -21 -8 -5 -10 -3 -4 7
5 8 4 10 0 6 -11 -10 -16 -39 -6 -32 4 2 8 -2 8 -10 0 -8 -4 -12 -8 -10 -4 3
-10 -2 -13 -11 -5 -12 -2 -15 11 -10 16 5 16 5 2 -7 -10 -7 -16 -26 -15 -49 1
-29 -2 -34 -12 -25 -10 8 -12 7 -10 -4 2 -8 8 -17 13 -21 6 -5 4 -8 -5 -8 -13
0 -13 -1 0 -10 10 -6 11 -10 3 -10 -7 0 -13 -12 -13 -28 0 -16 -6 -37 -14 -48
-10 -13 -11 -23 -4 -31 7 -9 6 -15 -6 -19 -15 -6 -15 -8 1 -21 10 -8 12 -11 4
-7 -11 5 -13 3 -8 -12 5 -12 -2 -8 -18 11 -43 52 -50 94 -36 214 25 206 25
207 2 269 -30 79 -71 127 -141 162 -52 26 -59 34 -81 87 -13 32 -43 79 -67
105 -41 44 -44 51 -39 87 3 22 19 68 37 103 41 79 41 119 4 188 -48 88 -108
147 -166 165 -68 20 -76 29 -84 87 -4 29 -18 66 -35 91 -33 48 -34 64 -13 132
16 54 12 121 -11 165 -7 14 -37 45 -65 69 -67 57 -80 89 -80 201 0 90 0 90
-37 131 -37 40 -38 46 -44 133 -7 103 -34 183 -77 235 -26 32 -33 34 -83 33
-43 -1 -62 4 -92 25 -20 14 -61 34 -90 43 -49 16 -52 19 -59 57 -3 23 -18 63
-31 90 -20 38 -24 58 -20 95 6 55 -1 90 -22 112 -9 8 -29 59 -45 113 -16 54
-41 130 -55 168 -15 39 -31 101 -36 139 -27 210 -127 379 -268 450 -28 15 -75
48 -105 75 -36 32 -77 57 -127 76 -64 25 -87 42 -170 120 -105 101 -132 113
-210 96 -51 -12 -62 -4 -116 76 -25 38 -50 61 -96 86 -46 25 -72 48 -100 88
-71 103 -89 121 -152 150 -80 38 -155 48 -190 25 -22 -14 -28 -15 -53 -2 -15
7 -62 21 -105 30 -88 18 -86 17 -142 62 -84 67 -153 81 -254 54 -34 -9 -55 -8
-104 4 -88 22 -284 53 -406 66 -119 12 -106 12 -196 -5z m-2316 -2594 c-7 -80
-12 -91 -44 -91 -13 0 -27 -5 -30 -11 -4 -6 -13 -8 -20 -5 -7 2 -18 -1 -24 -7
-6 -6 -11 -8 -11 -5 0 4 -16 0 -36 -8 -20 -8 -38 -13 -41 -11 -2 3 -16 -1 -30
-8 -15 -8 -30 -12 -35 -9 -4 3 -8 0 -8 -5 0 -6 -11 -11 -24 -11 -14 0 -28 -5
-31 -10 -4 -6 -11 -8 -16 -4 -6 3 -20 -2 -31 -13 -15 -12 -19 -13 -14 -3 5 9
2 8 -7 -2 -8 -10 -16 -15 -20 -12 -3 3 -13 1 -24 -5 -17 -9 -47 -21 -65 -26
-5 -2 -17 -3 -29 -4 -11 0 -18 -4 -16 -8 3 -5 -6 -9 -19 -10 -47 -4 -54 -6
-54 -17 0 -6 -4 -5 -9 2 -6 11 -11 10 -24 -3 -9 -9 -21 -14 -26 -10 -5 3 -12
1 -16 -5 -3 -5 -15 -10 -26 -10 -10 0 -19 -5 -19 -11 0 -5 -4 -8 -9 -4 -5 3
-29 -1 -52 -9 -24 -8 -46 -13 -51 -10 -4 3 -8 0 -8 -6 0 -6 -4 -9 -9 -5 -5 3
-12 1 -16 -5 -3 -5 -17 -10 -30 -10 -13 0 -29 -8 -34 -17 -7 -12 -11 -13 -11
-5 0 10 -4 9 -16 -2 -8 -9 -20 -14 -25 -11 -5 4 -9 1 -9 -6 0 -8 -4 -8 -16 1
-12 11 -15 11 -12 -1 2 -9 -6 -14 -24 -13 -16 0 -28 -4 -28 -9 0 -5 -7 -6 -16
-3 -8 3 -13 2 -10 -3 6 -9 -51 -24 -64 -16 -4 3 -11 -2 -14 -11 -5 -14 -9 -14
-23 -3 -9 8 -14 9 -10 3 7 -11 -38 -27 -75 -27 -10 0 -15 -4 -12 -8 3 -5 -8
-9 -24 -9 -16 0 -32 -3 -36 -7 -4 -5 -11 -8 -14 -9 -22 -2 -98 -30 -103 -37
-4 -6 -20 -10 -37 -11 -17 0 -30 -5 -29 -11 1 -5 -8 -9 -20 -9 -13 1 -23 -2
-23 -6 0 -7 -10 -9 -54 -13 -13 -1 -22 -5 -20 -8 3 -5 -32 -17 -68 -23 -3 -1
-10 -4 -14 -8 -4 -4 -14 -2 -22 5 -13 9 -14 9 -8 0 4 -7 2 -14 -3 -14 -14 -2
-29 -6 -36 -9 -3 -1 -8 -3 -12 -4 -5 -1 -14 -5 -22 -10 -10 -7 -12 -6 -6 3 4
7 -4 5 -19 -4 -14 -10 -26 -14 -26 -10 0 5 -10 0 -22 -11 -12 -10 -18 -13 -14
-6 10 18 -4 15 -27 -5 -11 -10 -17 -12 -13 -5 7 11 4 11 -15 0 -13 -7 -27 -17
-30 -21 -3 -4 -10 -7 -15 -5 -5 1 -19 -4 -32 -11 -18 -10 -26 -10 -38 0 -12
10 -13 9 -9 -3 5 -12 -4 -18 -32 -23 -43 -10 -51 -11 -58 -15 -3 -1 -9 -4 -15
-5 -5 -1 -11 -3 -12 -5 -6 -4 -44 -12 -65 -14 -13 0 -23 -4 -23 -7 0 -5 -67
-29 -99 -35 -8 -2 -26 -6 -40 -10 -14 -4 -29 -7 -33 -6 -5 1 -8 -3 -8 -9 0 -5
-4 -8 -9 -4 -5 3 -17 -2 -25 -11 -12 -12 -16 -12 -17 -2 0 10 -2 10 -6 1 -2
-7 -11 -13 -19 -13 -8 0 -14 -4 -14 -9 0 -6 -9 -8 -20 -6 -11 2 -20 -1 -20 -6
0 -6 -4 -8 -8 -5 -5 3 -21 -2 -36 -10 -16 -7 -37 -14 -47 -14 -10 0 -20 -4
-23 -9 -3 -4 -18 -6 -33 -4 -22 4 -25 2 -13 -6 12 -9 10 -11 -10 -12 -14 0
-34 -3 -45 -5 -11 -3 -26 -6 -32 -6 -7 -1 -13 -6 -13 -11 0 -5 -9 -7 -20 -4
-11 3 -20 1 -20 -4 0 -5 -3 -8 -7 -8 -5 1 -11 0 -15 -1 -5 -1 -12 -4 -18 -5
-5 -1 -11 -3 -12 -5 -2 -1 -11 -3 -20 -6 -10 -2 -26 -6 -35 -8 -10 -3 -19 -5
-20 -6 -4 -3 -20 -7 -34 -9 -5 0 -8 -5 -4 -10 3 -6 -4 -8 -15 -6 -11 2 -20 0
-20 -4 0 -7 -7 -9 -49 -13 -11 -1 -17 -6 -15 -10 3 -4 -2 -9 -10 -9 -19 -2
-26 -4 -48 -13 -17 -8 -44 -14 -66 -15 -7 -1 -11 -4 -9 -8 3 -5 -5 -9 -16 -10
-23 -2 -69 -10 -77 -13 -3 -1 -8 -2 -12 -1 -5 0 -8 -5 -8 -12 0 -8 -4 -7 -10
3 -5 8 -10 10 -10 4 0 -9 -72 -37 -100 -39 -3 0 -11 -4 -17 -8 -7 -5 -18 -5
-23 -2 -6 3 -12 0 -15 -7 -3 -8 -17 -15 -32 -16 -15 -1 -31 -8 -35 -15 -6 -9
-10 -9 -18 3 -8 13 -10 12 -10 -4 0 -11 -3 -16 -7 -13 -3 4 -11 3 -17 -2 -6
-5 -22 -11 -36 -13 -14 -1 -28 -6 -31 -11 -3 -4 -19 -9 -35 -12 -16 -2 -40 -7
-53 -11 -19 -6 -22 -4 -16 7 5 8 4 11 -1 6 -5 -5 -9 -14 -9 -20 0 -6 -16 -12
-35 -15 -19 -2 -37 -7 -40 -12 -3 -4 -21 -9 -40 -11 -19 -2 -38 -7 -41 -12 -3
-5 -9 -2 -12 7 -5 12 0 16 18 16 14 0 25 5 25 10 0 6 5 10 11 10 5 0 7 -6 4
-12 -4 -7 0 -5 9 6 11 14 12 21 3 31 -15 16 -30 14 -39 -5 -5 -10 -7 -7 -8 10
-1 23 -2 23 -10 5 -8 -19 -9 -19 -9 -1 -1 15 -4 16 -16 6 -12 -10 -15 -10 -15
1 0 11 -2 11 -10 -1 -6 -10 -10 -11 -10 -2 0 6 -10 12 -21 12 -19 0 -21 -4
-14 -36 7 -41 24 -63 43 -56 10 3 10 7 0 20 -12 13 -10 14 10 3 12 -6 22 -19
22 -27 0 -8 -5 -12 -10 -9 -6 4 -17 1 -25 -5 -8 -6 -19 -9 -25 -5 -5 3 -10 1
-10 -6 0 -7 -8 -9 -21 -6 -15 4 -18 2 -10 -7 7 -8 5 -12 -7 -13 -29 -2 -65
-12 -71 -20 -6 -8 -23 -14 -56 -18 -11 -1 -21 -4 -22 -5 -2 -1 -6 -3 -10 -5
-5 -1 -15 -4 -23 -8 -8 -3 -28 -9 -45 -13 -16 -4 -37 -9 -45 -11 -8 -3 -27 -7
-42 -10 -16 -3 -28 -9 -28 -14 0 -4 -9 -6 -20 -4 -11 2 -20 0 -20 -5 0 -5 -14
-8 -31 -8 l-31 1 23 18 c13 10 20 21 17 25 -4 4 -1 12 7 18 14 10 13 13 -5 28
-11 10 -20 13 -20 7 0 -6 -9 -9 -20 -6 -11 3 -23 1 -26 -4 -3 -5 -9 -7 -14 -4
-4 3 -15 -6 -24 -20 -9 -14 -12 -25 -6 -25 5 0 10 -7 10 -16 0 -14 2 -15 17
-3 11 10 14 10 9 2 -4 -8 -1 -13 8 -13 9 0 16 -4 16 -10 0 -11 -40 -34 -47
-26 -3 3 -14 1 -24 -4 -24 -13 -35 3 -41 63 -1 9 -6 17 -10 17 -4 0 -8 5 -8
11 0 5 6 7 13 3 7 -5 7 -1 -3 12 -8 10 -10 16 -6 12 5 -4 16 -2 24 5 13 9 14
9 8 0 -10 -17 8 -17 22 0 6 7 23 14 38 15 15 1 31 8 36 15 6 9 8 8 8 -3 0 -13
1 -13 10 0 5 8 10 12 10 7 0 -4 13 -1 29 8 17 8 39 16 50 18 11 2 24 6 27 10
17 16 23 4 18 -33 -4 -27 -2 -40 6 -40 6 0 9 -4 5 -9 -3 -5 0 -13 6 -17 8 -5
9 -3 4 6 -6 10 -4 12 7 7 9 -3 21 0 27 6 8 8 11 8 11 0 0 -14 26 -11 42 5 7 7
16 8 22 3 7 -6 16 -3 24 5 7 8 9 14 3 14 -20 0 -20 30 1 41 14 7 18 7 14 0 -8
-13 26 -49 41 -44 7 3 8 14 3 33 -5 18 -4 32 3 40 9 8 7 9 -7 4 -12 -4 -17 -4
-13 2 3 6 2 16 -3 24 -7 11 -11 8 -21 -13 -9 -21 -17 -26 -32 -21 -13 4 -17 2
-12 -5 4 -7 4 -19 1 -28 -5 -13 -9 -12 -26 7 -21 24 -28 56 -10 45 6 -3 10 -2
10 4 0 5 8 8 18 6 10 -2 36 5 57 15 22 10 43 16 47 14 5 -3 8 0 8 7 0 7 10 9
25 7 13 -3 23 -1 22 5 -1 5 5 11 13 13 8 2 40 12 70 23 30 11 63 20 73 21 9 0
17 5 17 10 0 6 5 10 11 10 5 0 9 -8 8 -17 -3 -32 1 -43 13 -40 7 1 13 -4 14
-10 1 -7 2 -17 3 -22 1 -12 38 -7 82 12 20 9 40 13 44 9 4 -4 2 3 -4 16 -10
18 -9 23 4 28 9 4 19 4 22 0 4 -3 1 -6 -5 -6 -7 0 -12 -4 -12 -8 0 -5 14 -8
30 -8 17 0 30 3 30 7 0 3 10 6 23 5 13 -1 21 4 20 12 -2 6 2 12 7 12 6 0 10
-5 10 -11 0 -5 5 -7 10 -4 6 4 7 11 4 17 -4 5 4 4 17 -2 17 -10 24 -10 27 -1
2 6 10 11 18 11 8 0 14 6 14 13 0 9 2 9 8 -1 12 -18 63 23 55 43 -3 8 -10 12
-17 7 -6 -4 -22 -7 -36 -7 -17 0 -25 -6 -25 -17 0 -10 -5 -17 -10 -17 -6 1 -9
5 -8 10 2 5 -9 9 -23 9 -14 0 -23 -4 -20 -9 9 -14 -20 -21 -34 -8 -10 9 -11 9
-6 0 4 -7 -2 -14 -14 -18 -11 -4 -18 -10 -16 -14 3 -4 -1 -8 -9 -8 -8 0 -12 4
-9 9 5 8 -9 12 -34 9 -6 -1 -12 4 -12 10 0 8 -7 6 -18 -4 -10 -10 -22 -14 -27
-10 -4 5 -5 3 -2 -3 4 -7 0 -17 -8 -24 -11 -9 -15 -10 -15 -1 0 8 -6 7 -16 -3
-8 -9 -12 -21 -8 -28 6 -9 3 -9 -9 1 -9 7 -17 22 -17 32 0 12 -5 16 -15 13 -8
-4 -15 -1 -15 5 0 10 14 15 33 12 4 0 7 3 7 9 0 5 7 7 15 4 8 -4 15 -1 15 5 0
6 6 8 14 5 8 -3 17 -1 20 5 4 6 14 7 23 4 12 -5 14 -3 8 7 -5 9 -4 11 3 6 6
-4 24 0 40 8 16 8 32 13 35 10 3 -3 17 2 31 11 14 9 30 14 36 10 5 -3 10 -1
10 4 0 6 12 11 26 11 14 0 23 4 19 9 -3 6 4 8 15 6 11 -2 20 0 20 4 0 7 7 9
50 13 11 1 20 6 20 11 0 4 5 5 10 2 5 -3 10 -2 10 4 0 5 9 8 20 6 11 -2 20 0
20 4 0 4 6 8 13 9 42 5 76 15 72 22 -2 4 7 6 20 4 14 -1 25 2 25 8 0 5 6 8 13
5 6 -2 21 3 31 12 11 9 16 10 12 4 -10 -18 2 -16 21 2 8 8 18 13 23 10 4 -3
13 2 20 10 10 12 16 13 28 3 13 -11 15 -10 9 5 -4 10 -3 16 3 12 12 -7 90 17
90 29 0 4 8 2 17 -5 9 -8 14 -9 10 -2 -5 7 4 14 25 18 18 4 38 11 43 16 6 4
26 10 45 12 19 2 45 9 58 16 12 6 22 9 22 5 0 -3 7 -1 15 6 8 6 19 9 24 6 5
-4 13 -1 16 5 4 5 14 8 22 5 8 -3 12 -2 9 3 -3 5 1 12 10 15 10 4 13 2 8 -7
-5 -8 -2 -8 9 2 9 7 24 10 33 7 14 -5 15 -4 5 8 -11 13 -9 15 8 11 12 -2 21 1
21 6 0 6 5 7 10 4 6 -4 17 -1 25 5 8 6 19 9 25 5 5 -3 10 -2 10 4 0 5 9 8 20
6 11 -2 18 0 15 5 -3 4 13 11 35 15 22 4 40 10 40 14 0 4 8 7 18 8 53 5 70 9
65 16 -2 4 6 7 19 7 13 0 36 7 51 15 15 8 25 10 22 5 -3 -5 7 -3 22 5 15 8 36
15 46 15 9 0 17 5 17 10 0 7 7 7 21 -1 15 -8 19 -8 15 0 -4 6 1 14 11 17 10 3
26 10 37 15 12 7 16 7 12 0 -4 -7 -1 -8 8 -5 9 3 13 11 9 17 -3 5 -1 7 4 4 6
-4 27 0 46 8 19 8 37 11 41 8 3 -4 6 -1 6 5 0 7 11 12 25 12 14 0 25 4 25 10
0 5 7 7 15 4 8 -4 15 -1 15 4 0 6 9 9 20 7 11 -2 18 0 15 6 -6 9 -1 11 28 13
6 1 15 5 19 10 3 5 15 11 26 12 11 2 32 9 48 16 16 6 34 12 40 13 6 0 20 7 30
15 16 13 17 13 9 0 -8 -13 -6 -13 8 -1 9 7 24 11 32 7 8 -3 15 -1 15 4 0 5 7
7 15 4 8 -4 15 -2 15 3 0 5 8 10 18 11 22 2 37 6 87 20 22 6 45 12 50 13 6 0
15 5 22 11 7 5 17 7 22 4 5 -4 13 -1 16 5 4 5 13 8 21 5 8 -3 14 -1 14 4 0 6
3 9 8 9 4 -1 9 0 12 1 3 1 13 3 23 6 28 7 41 11 57 17 8 4 28 9 43 11 16 3 36
11 44 18 9 7 18 12 20 10 3 -2 44 5 71 14 7 2 16 4 20 5 4 1 12 9 19 18 10 13
12 13 13 2 0 -11 4 -10 16 5 8 10 13 13 9 7 -3 -7 -1 -13 4 -13 6 0 11 5 11
11 0 5 4 8 9 4 5 -3 16 1 24 9 8 8 17 12 21 9 3 -3 12 -1 20 6 8 6 18 11 22
10 21 -3 53 14 47 25 -4 6 1 5 10 -3 11 -9 17 -10 17 -2 0 6 9 11 21 11 11 0
18 4 15 9 -4 5 3 7 14 4 12 -3 20 0 20 7 0 8 9 11 25 8 13 -3 22 -1 19 3 -5 9
9 13 34 10 6 -1 12 4 12 10 0 7 3 9 7 6 3 -4 13 -1 21 6 13 10 14 9 7 -3 -7
-12 -6 -13 6 -3 12 10 76 30 104 34 6 0 15 5 21 10 6 5 23 10 38 11 14 1 26 5
26 9 0 3 6 6 13 7 41 3 57 7 57 14 0 4 3 7 8 6 4 -1 27 4 52 11 25 7 52 15 60
16 8 2 15 4 15 5 0 3 41 12 62 14 11 0 19 4 16 9 -2 4 -1 7 4 8 32 3 58 11 61
19 2 5 10 6 18 3 8 -3 20 0 28 6 7 6 16 8 19 4 4 -3 7 -1 7 6 0 7 4 10 9 6 5
-3 12 -1 16 5 4 6 11 8 16 5 5 -4 9 -1 9 5 0 6 5 8 10 5 6 -3 10 -2 10 2 0 5
8 9 18 10 16 1 17 -5 11 -66z m-5189 -1185 c0 -2 -8 -10 -17 -17 -16 -13 -17
-12 -4 4 13 16 21 21 21 13z m752 -235 c3 -20 -1 -32 -14 -40 -24 -15 -26 -14
-24 12 1 13 -4 21 -11 20 -7 -2 -13 3 -13 11 0 8 10 17 23 19 12 2 25 5 28 6
4 0 9 -12 11 -28z m-632 -881 c0 -5 -2 -10 -4 -10 -3 0 -8 5 -11 10 -3 6 -1
10 4 10 6 0 11 -4 11 -10z m12304 -1782 c-5 -9 -2 -9 9 1 13 11 17 11 17 1 0
-8 3 -10 7 -7 3 4 15 -1 26 -10 11 -10 17 -12 13 -5 -4 6 -2 12 3 12 6 0 11
-5 11 -12 0 -9 3 -9 12 0 8 8 16 8 23 2 7 -6 24 -11 39 -12 14 -1 26 -6 26
-10 0 -3 12 -8 28 -10 l27 -3 6 -105 c10 -154 28 -198 130 -317 56 -66 57 -73
61 -239 l3 -122 -36 39 c-23 25 -70 55 -140 87 -58 28 -117 63 -134 81 l-30
32 0 147 0 147 -41 70 c-63 107 -96 245 -58 245 3 0 2 -6 -2 -12z"/>
<path d="M12876 6157 c3 -10 9 -15 12 -12 3 3 0 11 -7 18 -10 9 -11 8 -5 -6z"/>
<path d="M266 9048 c3 -5 10 -6 15 -3 13 9 11 12 -6 12 -8 0 -12 -4 -9 -9z"/>
<path d="M12310 8976 c0 -2 8 -10 18 -17 15 -13 16 -12 3 4 -13 16 -21 21 -21
13z"/>
</g>
</svg>
